<?xml version="1.0" encoding="UTF-8"?>
<svg id="Layer_1" data-name="Layer 1" xmlns="http://www.w3.org/2000/svg" xmlns:xlink="http://www.w3.org/1999/xlink" viewBox="0 0 566.93 219.41">
  <defs>
    <style>
      .cls-1 {
        fill: url(#linear-gradient-4);
      }

      .cls-2 {
        fill: url(#linear-gradient-3);
      }

      .cls-3 {
        fill: url(#linear-gradient-2);
      }

      .cls-4 {
        fill: url(#linear-gradient);
      }

      .cls-5 {
        fill: #fff;
      }
    </style>
    <linearGradient id="linear-gradient" x1="160.69" y1="-11.41" x2="93.04" y2="195.67" gradientUnits="userSpaceOnUse">
      <stop offset="0" stop-color="#2acfea"/>
      <stop offset="1" stop-color="#c929dc"/>
    </linearGradient>
    <linearGradient id="linear-gradient-2" x1="87.08" y1="-35.46" x2="19.42" y2="171.62" xlink:href="#linear-gradient"/>
    <linearGradient id="linear-gradient-3" x1="164.81" y1="-10.06" x2="97.15" y2="197.02" xlink:href="#linear-gradient"/>
    <linearGradient id="linear-gradient-4" x1="197.25" y1=".54" x2="129.59" y2="207.62" xlink:href="#linear-gradient"/>
  </defs>
  <g>
    <path class="cls-4" d="M148.14,183.93c0,16.56-8.15,29.86-8.15,29.86l-.02.05-80.68-80.68c15.09-8.88,33.96-10.98,51.52-4.06,23.18,9.13,37.33,31.33,37.33,54.83Z"/>
    <path class="cls-3" d="M94.97,92.67c-7.26,18.42-22.75,31.13-40.59,35.58L1.13,75h.01s91.57-30.53,91.57-30.53c7.33,14.48,8.67,31.91,2.26,48.2Z"/>
    <path class="cls-2" d="M209.4,5.57l-21.24,63.72c-15.79,11.73-37.11,15.29-56.77,7.54-16.13-6.35-27.88-19.03-33.54-34.07L209.4,5.57Z"/>
    <path class="cls-1" d="M185.11,78.42l-30.47,91.42c-11.62-15.78-15.12-37-7.41-56.58,6.89-17.48,21.19-29.82,37.88-34.84Z"/>
  </g>
  <g>
    <polygon class="cls-5" points="287.76 50.49 274.23 50.49 219.04 175.28 235.91 175.28 280.73 72.63 326.08 175.28 343.12 175.28 287.76 50.49"/>
    <path class="cls-5" d="M421.16,175.28l-47.63-43.94v43.94h-15.12V43.46h15.12v78.21l38.31-34.27h20.04l-43.24,38.84,52.9,49.04h-20.39Z"/>
    <path class="cls-5" d="M483.73,177.03c-12.19,0-22.41-4.45-30.67-13.36-8.26-8.9-12.39-19.68-12.39-32.34s4.13-23.43,12.39-32.34c8.26-8.9,18.48-13.36,30.67-13.36,6.44,0,12.45,1.44,18.01,4.31,5.56,2.87,9.87,6.53,12.92,10.98v-13.53h15.11v87.88h-15.11v-13.53c-3.05,4.45-7.35,8.12-12.92,10.98-5.57,2.87-11.57,4.31-18.01,4.31ZM486.01,163.15c8.67,0,15.82-3.04,21.44-9.14,5.62-6.09,8.44-13.65,8.44-22.67s-2.81-16.58-8.44-22.67c-5.62-6.09-12.77-9.14-21.44-9.14s-15.99,3.05-21.62,9.14c-5.62,6.09-8.44,13.65-8.44,22.67s2.81,16.58,8.44,22.67c5.62,6.09,12.83,9.14,21.62,9.14Z"/>
    <path class="cls-5" d="M550.68,175.28V43.46h15.12v131.82h-15.12Z"/>
  </g>
</svg>